{
  "accessors": [
    {
      "bufferView": 2,
      "componentType": 5126,
      "count": 8586,
      "max": [
        3.5985100269317627,
        3.972790002822876,
        4.3379697799682617
      ],
      "min": [
        -3.5985100269317627,
        -2.9292199611663818,
        -3.7688300609588623
      ],
      "type": "VEC3"
    },
    {
      "bufferView": 2,
      "byteOffset": 103032,
      "componentType": 5126,
      "count": 8586,
      "max": [
        0.99999946355819702,
        0.99997836351394653,
        0.99956095218658447
      ],
      "min": [
        -0.99999946355819702,
        -0.99989038705825806,
        -0.99991393089294434
      ],
      "type": "VEC3"
    },
    {
      "bufferView": 3,
      "componentType": 5126,
      "count": 8586,
      "max": [
        1,
        0.99965327978134155,
        0.98420536518096924,
        1
      ],
      "min": [
        -1,
        -0.99968278408050537,
        -0.98425906896591187,
        -1
      ],
      "type": "VEC4"
    },
    {
      "bufferView": 1,
      "componentType": 5126,
      "count": 8586,
      "max": [
        0.97711002826690674,
        0.97654998302459717
      ],
      "min": [
        0.022849999368190765,
        0.025010000914335251
      ],
      "type": "VEC2"
    },
    {
      "bufferView": 0,
      "componentType": 5125,
      "count": 50472,
      "max": [
        8585
      ],
      "min": [
        0
      ],
      "type": "SCALAR"
    }
  ],
  "asset": {
    "extras": {
      "author": "Suprovo Basak (https://sketchfab.com/SuprovoRGB)",
      "license": "CC-BY-4.0 (http://creativecommons.org/licenses/by/4.0/)",
      "source": "https://sketchfab.com/models/4d3aabcf3f56429ca564885d118032a6",
      "title": "Joker Mask"
    },
    "generator": "Sketchfab-3.18.6",
    "version": "2.0"
  },
  "bufferViews": [
    {
      "buffer": 0,
      "byteLength": 201888,
      "byteOffset": 0,
      "name": "floatBufferViews",
      "target": 34963
    },
    {
      "buffer": 0,
      "byteLength": 68688,
      "byteOffset": 201888,
      "byteStride": 8,
      "name": "floatBufferViews",
      "target": 34962
    },
    {
      "buffer": 0,
      "byteLength": 206064,
      "byteOffset": 270576,
      "byteStride": 12,
      "name": "floatBufferViews",
      "target": 34962
    },
    {
      "buffer": 0,
      "byteLength": 137376,
      "byteOffset": 476640,
      "byteStride": 16,
      "name": "floatBufferViews",
      "target": 34962
    }
  ],
  "buffers": [
    {
      "byteLength": 614016,
      "uri": "scene.bin"
    }
  ],
  "extensionsRequired": [
    "KHR_materials_pbrSpecularGlossiness"
  ],
  "extensionsUsed": [
    "KHR_materials_pbrSpecularGlossiness"
  ],
  "images": [
    {
      "uri": "textures/Joker_Mask_Material_diffuse.jpeg"
    }
  ],
  "materials": [
    {
      "doubleSided": true,
      "emissiveFactor": [
        0,
        0,
        0
      ],
      "extensions": {
        "KHR_materials_pbrSpecularGlossiness": {
          "diffuseFactor": [
            1,
            1,
            1,
            1
          ],
          "diffuseTexture": {
            "index": 0,
            "texCoord": 0
          },
          "glossinessFactor": 0.69999999999999996,
          "specularFactor": [
            0.14999999999999999,
            0.14999999999999999,
            0.14999999999999999
          ]
        }
      },
      "name": "Joker_Mask_Material"
    }
  ],
  "meshes": [
    {
      "name": "Joker_Mask_0",
      "primitives": [
        {
          "attributes": {
            "NORMAL": 1,
            "POSITION": 0,
            "TANGENT": 2,
            "TEXCOORD_0": 3
          },
          "indices": 4,
          "material": 0,
          "mode": 4
        }
      ]
    }
  ],
  "nodes": [
    {
      "children": [
        1
      ],
      "name": "RootNode (gltf orientation matrix)",
      "rotation": [
        -0.70710678118654746,
        -0,
        -0,
        0.70710678118654757
      ]
    },
    {
      "children": [
        2
      ],
      "name": "RootNode (model correction matrix)"
    },
    {
      "children": [
        3
      ],
      "name": "Root"
    },
    {
      "children": [
        4
      ],
      "name": "Joker_Mask"
    },
    {
      "mesh": 0,
      "name": "Joker_Mask_0"
    }
  ],
  "samplers": [
    {
      "magFilter": 9729,
      "minFilter": 9987,
      "wrapS": 10497,
      "wrapT": 10497
    }
  ],
  "scene": 0,
  "scenes": [
    {
      "name": "OSG_Scene",
      "nodes": [
        0
      ]
    }
  ],
  "textures": [
    {
      "sampler": 0,
      "source": 0
    }
  ]
}

